<?xml version="1.0" standalone="no"?>
<!DOCTYPE svg PUBLIC "-//W3C//DTD SVG 20010904//EN"
 "http://www.w3.org/TR/2001/REC-SVG-20010904/DTD/svg10.dtd">
<svg version="1.0" xmlns="http://www.w3.org/2000/svg"
 width="1280.000000pt" height="960.000000pt" viewBox="0 0 1280.000000 960.000000"
 preserveAspectRatio="xMidYMid meet">
<g transform="translate(0.000000,960.000000) scale(0.100000,-0.100000)"
fill="#000000" stroke="none">
<path d="M933 8723 c-6 -15 10 -284 67 -1158 11 -159 33 -499 50 -755 17 -256
39 -600 50 -765 11 -165 34 -511 50 -770 63 -964 66 -1005 78 -1017 14 -14 -1
-15 847 82 331 38 594 64 599 59 5 -5 -46 -155 -125 -364 l-134 -357 -80 6
c-44 4 -237 27 -430 51 -466 59 -597 69 -790 61 -701 -27 -1066 -151 -917
-309 57 -61 213 -119 402 -151 157 -26 273 -36 520 -46 254 -9 379 -27 585
-80 305 -80 534 -199 523 -273 -7 -53 -167 -104 -418 -133 -118 -13 -179 -15
-330 -8 -251 12 -500 10 -585 -5 -246 -42 -328 -132 -252 -277 48 -90 242
-232 469 -343 75 -36 136 -70 134 -76 -1 -5 -42 -17 -90 -26 -48 -9 -91 -20
-95 -25 -12 -13 12 -561 25 -574 17 -17 2185 -940 2209 -940 13 0 155 24 316
54 162 30 490 91 729 135 2245 414 3264 602 3885 717 402 74 735 136 741 138
16 6 27 318 11 332 -25 24 -2321 1034 -2349 1034 -16 0 -829 -128 -1806 -285
-3732 -599 -3418 -550 -3460 -536 -74 26 -379 180 -456 231 -137 89 -236 199
-236 259 0 33 56 79 123 100 115 35 242 45 471 35 292 -12 469 -9 616 10 255
34 391 91 406 171 15 83 -90 172 -300 254 -285 111 -526 157 -896 171 -270 10
-428 28 -589 66 -166 39 -291 105 -276 146 8 19 69 54 141 78 98 34 241 58
480 80 341 33 518 26 1039 -39 226 -28 437 -55 470 -59 l60 -7 5 -84 5 -84 56
-51 c31 -28 171 -162 311 -298 223 -217 259 -248 287 -248 45 0 1634 149 1649
155 9 3 12 36 10 132 l-3 127 -477 180 c-263 100 -478 186 -478 193 0 6 24 25
53 42 28 17 60 36 69 43 13 10 36 3 125 -39 210 -99 427 -154 893 -223 162
-24 206 -35 214 -56 3 -9 -17 -64 -48 -127 -53 -111 -69 -163 -81 -266 -6 -52
-5 -54 34 -91 50 -48 116 -65 214 -56 69 6 122 23 553 170 276 94 392 117 641
123 321 9 428 -14 688 -143 194 -96 245 -109 386 -93 100 11 120 16 314 79
211 67 333 91 500 97 162 6 278 -10 416 -57 82 -28 95 -30 248 -30 122 0 161
-3 161 -12 0 -22 -25 -97 -35 -107 -6 -6 -276 -46 -600 -91 -325 -44 -595 -82
-600 -84 -6 -2 -9 -24 -7 -48 l4 -44 994 -433 995 -433 1342 226 c738 125
1349 231 1357 235 19 10 26 87 8 94 -7 2 -440 181 -961 396 l-948 392 -111
-16 -111 -17 -78 36 c-107 49 -233 90 -359 117 -89 20 -135 23 -295 23 -162 0
-201 -3 -267 -22 -95 -26 -169 -63 -230 -113 l-47 -39 -182 0 c-175 0 -185 1
-277 31 -295 94 -578 75 -997 -67 -56 -18 -146 -41 -202 -51 -148 -25 -208
-13 -379 76 -253 133 -352 156 -669 156 -299 0 -436 -26 -776 -146 -353 -124
-410 -141 -494 -146 -69 -5 -87 -2 -123 16 -26 13 -44 30 -48 46 -10 41 24
167 71 261 59 118 68 145 56 177 -21 54 -32 57 -434 122 -236 39 -454 90 -578
135 -104 39 -219 97 -220 113 0 6 0 37 1 68 1 31 -8 92 -19 136 -30 117 -29
122 33 182 30 28 60 51 65 51 8 0 11 -67 11 -205 0 -204 0 -206 23 -215 12 -5
735 -140 1607 -301 1500 -275 1590 -290 1670 -285 75 5 397 38 2019 208 376
39 404 44 411 63 5 11 14 673 20 1470 6 798 15 1866 20 2375 5 510 5 927 0
930 -4 3 -577 38 -1272 79 l-1263 73 -758 -52 c-555 -38 -761 -50 -769 -42 -7
7 -15 71 -20 144 -5 73 -13 143 -17 154 -10 24 27 22 -1078 44 -277 6 -727 14
-1000 20 -274 5 -734 14 -1023 20 -289 6 -727 15 -973 20 -650 14 -706 14
-714 -7z m3117 -4207 l0 -44 -58 5 c-55 5 -61 3 -94 -26 -49 -43 -63 -97 -55
-217 6 -92 6 -97 -23 -151 -24 -45 -30 -68 -30 -120 0 -64 12 -99 53 -155 17
-23 18 -30 7 -43 -20 -24 -91 -63 -144 -79 -44 -14 -52 -13 -102 6 -34 13 -54
27 -54 37 0 27 219 784 230 795 11 11 150 32 228 35 l42 1 0 -44z m0 -171 c0
-85 -9 -102 -36 -75 -7 7 -24 -1 -51 -25 -23 -19 -46 -35 -52 -35 -7 0 -11 27
-11 73 0 101 21 134 87 140 26 2 51 4 56 5 4 1 7 -36 7 -83z m-151 -416 c15
-73 4 -94 -28 -53 -20 26 -26 51 -21 104 5 66 32 39 49 -51z"/>
</g>
</svg>
